<svg xmlns="http://www.w3.org/2000/svg" xmlns:xlink="http://www.w3.org/1999/xlink" width="160" zoomAndPan="magnify" viewBox="0 0 120 30.000001" height="40" preserveAspectRatio="xMidYMid meet" version="1.0"><defs><g/><clipPath id="ea1a8d9cd2"><path d="M 1.933594 0 L 118.0625 0 L 118.0625 29.03125 L 1.933594 29.03125 Z M 1.933594 0 " clip-rule="nonzero"/></clipPath><clipPath id="42ae2862d7"><path d="M 90.53125 8.855469 L 101.984375 8.855469 L 101.984375 28.308594 L 90.53125 28.308594 Z M 90.53125 8.855469 " clip-rule="nonzero"/></clipPath><clipPath id="3560c8202e"><path d="M 104 2.90625 L 115.933594 2.90625 L 115.933594 23 L 104 23 Z M 104 2.90625 " clip-rule="nonzero"/></clipPath></defs><g clip-path="url(#ea1a8d9cd2)"><path fill="#ffffff" d="M 1.933594 0 L 118.066406 0 L 118.066406 29.03125 L 1.933594 29.03125 Z M 1.933594 0 " fill-opacity="1" fill-rule="nonzero"/><path fill="#ffffff" d="M 1.933594 0 L 118.066406 0 L 118.066406 29.03125 L 1.933594 29.03125 Z M 1.933594 0 " fill-opacity="1" fill-rule="nonzero"/></g><g clip-path="url(#42ae2862d7)"><path fill="#6e7172" d="M 91.21875 9.707031 C 91.21875 9.421875 91.230469 9.140625 91.246094 8.859375 C 91.625 14.792969 95.9375 19.652344 101.601562 20.867188 L 101.964844 20.941406 L 100.566406 27.898438 L 100.480469 28.320312 C 94.601562 26.636719 90.300781 21.21875 90.300781 14.800781 C 90.300781 14.496094 90.3125 14.195312 90.328125 13.894531 C 90.6875 19.527344 94.363281 24.257812 99.425781 26.15625 L 100.222656 22.1875 C 94.992188 20.453125 91.21875 15.519531 91.21875 9.707031 " fill-opacity="1" fill-rule="nonzero"/></g><path fill="#6e7172" d="M 104.707031 18.582031 L 105.0625 18.464844 L 107.328125 25.191406 L 107.464844 25.597656 C 105.457031 26.097656 103.394531 26.140625 101.414062 25.757812 L 101.695312 24.363281 C 102.945312 24.492188 104.214844 24.460938 105.472656 24.253906 L 104.175781 20.414062 C 104.175781 20.414062 100.515625 20.585938 97.722656 18.875 C 99.996094 19.398438 102.410156 19.328125 104.707031 18.582031 " fill-opacity="1" fill-rule="nonzero"/><path fill="#6e7172" d="M 111.832031 19.464844 L 112.15625 19.75 C 110.667969 21.183594 108.898438 22.253906 106.996094 22.910156 L 106.539062 21.5625 C 107.6875 21.050781 108.769531 20.390625 109.753906 19.578125 L 106.714844 16.902344 C 106.714844 16.902344 104.167969 18.53125 100.351562 18.796875 C 102.582031 18.117188 104.636719 16.847656 106.257812 15.050781 L 106.503906 14.773438 L 111.832031 19.464844 " fill-opacity="1" fill-rule="nonzero"/><path fill="#6e7172" d="M 96.132812 20.78125 C 95.46875 20.78125 94.933594 21.316406 94.933594 21.980469 C 94.933594 22.640625 95.46875 23.179688 96.132812 23.179688 C 96.792969 23.179688 97.332031 22.640625 97.332031 21.980469 C 97.332031 21.316406 96.792969 20.78125 96.132812 20.78125 " fill-opacity="1" fill-rule="nonzero"/><path fill="#6e7172" d="M 103.164062 21.285156 C 102.636719 21.285156 102.210938 21.710938 102.210938 22.238281 C 102.210938 22.765625 102.636719 23.191406 103.164062 23.191406 C 103.691406 23.191406 104.117188 22.765625 104.117188 22.238281 C 104.117188 21.710938 103.691406 21.285156 103.164062 21.285156 " fill-opacity="1" fill-rule="nonzero"/><path fill="#6e7172" d="M 107.078125 18.320312 C 106.628906 18.320312 106.265625 18.683594 106.265625 19.132812 C 106.265625 19.582031 106.628906 19.945312 107.078125 19.945312 C 107.523438 19.945312 107.890625 19.582031 107.890625 19.132812 C 107.890625 18.683594 107.523438 18.320312 107.078125 18.320312 " fill-opacity="1" fill-rule="nonzero"/><g clip-path="url(#3560c8202e)"><path fill="#ffbd59" d="M 114.984375 21.519531 C 114.984375 21.804688 114.976562 22.085938 114.957031 22.367188 C 114.582031 16.433594 110.269531 11.574219 104.605469 10.359375 L 104.238281 10.285156 L 105.640625 3.328125 L 105.722656 2.90625 C 111.601562 4.589844 115.90625 10.007812 115.90625 16.425781 C 115.90625 16.730469 115.894531 17.03125 115.875 17.332031 C 115.515625 11.699219 111.839844 6.96875 106.777344 5.070312 L 105.980469 9.039062 C 111.210938 10.773438 114.984375 15.707031 114.984375 21.519531 " fill-opacity="1" fill-rule="nonzero"/></g><path fill="#ffbd59" d="M 101.496094 12.644531 L 101.144531 12.761719 L 98.875 6.035156 L 98.738281 5.628906 C 100.746094 5.125 102.8125 5.085938 104.789062 5.46875 L 104.507812 6.863281 C 103.261719 6.734375 101.992188 6.765625 100.734375 6.972656 L 102.027344 10.8125 C 102.027344 10.8125 105.6875 10.640625 108.480469 12.351562 C 106.210938 11.828125 103.796875 11.898438 101.496094 12.644531 " fill-opacity="1" fill-rule="nonzero"/><path fill="#ffbd59" d="M 94.371094 11.761719 L 94.050781 11.476562 C 95.539062 10.039062 97.304688 8.972656 99.210938 8.316406 L 99.664062 9.664062 C 98.519531 10.175781 97.433594 10.835938 96.449219 11.648438 L 99.488281 14.324219 C 99.488281 14.324219 102.035156 12.695312 105.851562 12.429688 C 103.621094 13.109375 101.566406 14.378906 99.945312 16.175781 L 99.699219 16.453125 L 94.371094 11.761719 " fill-opacity="1" fill-rule="nonzero"/><path fill="#ffbd59" d="M 110.074219 10.445312 C 110.734375 10.445312 111.273438 9.910156 111.273438 9.246094 C 111.273438 8.585938 110.734375 8.046875 110.074219 8.046875 C 109.410156 8.046875 108.871094 8.585938 108.871094 9.246094 C 108.871094 9.910156 109.410156 10.445312 110.074219 10.445312 " fill-opacity="1" fill-rule="nonzero"/><path fill="#ffbd59" d="M 103.039062 9.941406 C 103.566406 9.941406 103.996094 9.515625 103.996094 8.988281 C 103.996094 8.460938 103.566406 8.035156 103.039062 8.035156 C 102.511719 8.035156 102.085938 8.460938 102.085938 8.988281 C 102.085938 9.515625 102.511719 9.941406 103.039062 9.941406 " fill-opacity="1" fill-rule="nonzero"/><path fill="#ffbd59" d="M 99.128906 12.90625 C 99.578125 12.90625 99.941406 12.542969 99.941406 12.09375 C 99.941406 11.644531 99.578125 11.28125 99.128906 11.28125 C 98.679688 11.28125 98.316406 11.644531 98.316406 12.09375 C 98.316406 12.542969 98.679688 12.90625 99.128906 12.90625 " fill-opacity="1" fill-rule="nonzero"/><g fill="#6e7172" fill-opacity="1"><g transform="translate(1.935482, 20.803643)"><g><path d="M 1.5 0 L 1.5 -12.484375 L 4.34375 -12.484375 L 4.34375 -7.6875 L 5.40625 -7.6875 C 6.101562 -7.6875 6.613281 -7.800781 6.9375 -8.03125 C 7.269531 -8.257812 7.546875 -8.664062 7.765625 -9.25 L 8.9375 -12.484375 L 12.015625 -12.484375 L 10.28125 -8.046875 C 10.125 -7.640625 9.945312 -7.273438 9.75 -6.953125 C 9.550781 -6.640625 9.328125 -6.363281 9.078125 -6.125 L 12.453125 0 L 9.15625 0 L 6.484375 -5.0625 C 6.367188 -5.050781 6.257812 -5.046875 6.15625 -5.046875 C 6.0625 -5.046875 5.953125 -5.046875 5.828125 -5.046875 L 4.34375 -5.046875 L 4.34375 0 Z M 1.5 0 "/></g></g></g><g fill="#6e7172" fill-opacity="1"><g transform="translate(14.016039, 20.803643)"><g><path d="M 5.078125 0.25 C 3.867188 0.25 2.914062 -0.128906 2.21875 -0.890625 C 1.519531 -1.660156 1.171875 -2.695312 1.171875 -4 L 1.171875 -9.375 L 3.890625 -9.375 L 3.890625 -4.265625 C 3.890625 -3.578125 4.050781 -3.039062 4.375 -2.65625 C 4.707031 -2.28125 5.160156 -2.09375 5.734375 -2.09375 C 6.347656 -2.09375 6.835938 -2.304688 7.203125 -2.734375 C 7.578125 -3.160156 7.765625 -3.742188 7.765625 -4.484375 L 7.765625 -9.375 L 10.46875 -9.375 L 10.46875 0 L 8.453125 0 L 8.171875 -1.046875 C 7.804688 -0.609375 7.351562 -0.28125 6.8125 -0.0625 C 6.28125 0.144531 5.703125 0.25 5.078125 0.25 Z M 5.078125 0.25 "/></g></g></g><g fill="#6e7172" fill-opacity="1"><g transform="translate(24.954523, 20.803643)"><g><path d="M 1.359375 0 L 1.359375 -9.375 L 3.375 -9.375 L 3.65625 -8.3125 C 4.039062 -8.75 4.503906 -9.078125 5.046875 -9.296875 C 5.585938 -9.515625 6.164062 -9.625 6.78125 -9.625 C 8.007812 -9.625 8.96875 -9.238281 9.65625 -8.46875 C 10.351562 -7.707031 10.703125 -6.679688 10.703125 -5.390625 L 10.703125 0 L 8 0 L 8 -5.109375 C 8 -5.796875 7.832031 -6.332031 7.5 -6.71875 C 7.175781 -7.101562 6.722656 -7.296875 6.140625 -7.296875 C 5.515625 -7.296875 5.007812 -7.082031 4.625 -6.65625 C 4.25 -6.226562 4.0625 -5.644531 4.0625 -4.90625 L 4.0625 0 Z M 1.359375 0 "/></g></g></g><g fill="#6e7172" fill-opacity="1"><g transform="translate(35.946544, 20.803643)"><g><path d="M 5.453125 0.25 C 4.523438 0.25 3.703125 0.0390625 2.984375 -0.375 C 2.273438 -0.800781 1.71875 -1.382812 1.3125 -2.125 C 0.90625 -2.875 0.703125 -3.726562 0.703125 -4.6875 C 0.703125 -5.65625 0.90625 -6.503906 1.3125 -7.234375 C 1.71875 -7.972656 2.273438 -8.554688 2.984375 -8.984375 C 3.703125 -9.410156 4.523438 -9.625 5.453125 -9.625 C 6.035156 -9.625 6.578125 -9.535156 7.078125 -9.359375 C 7.578125 -9.179688 8.03125 -8.941406 8.4375 -8.640625 L 8.4375 -13.203125 L 11.15625 -13.203125 L 11.15625 0 L 9.140625 0 L 8.8125 -1.078125 C 8.394531 -0.660156 7.898438 -0.332031 7.328125 -0.09375 C 6.765625 0.132812 6.140625 0.25 5.453125 0.25 Z M 3.375 -4.6875 C 3.375 -3.925781 3.613281 -3.300781 4.09375 -2.8125 C 4.570312 -2.332031 5.191406 -2.09375 5.953125 -2.09375 C 6.722656 -2.09375 7.34375 -2.332031 7.8125 -2.8125 C 8.289062 -3.300781 8.53125 -3.925781 8.53125 -4.6875 C 8.53125 -5.445312 8.289062 -6.070312 7.8125 -6.5625 C 7.34375 -7.050781 6.722656 -7.296875 5.953125 -7.296875 C 5.191406 -7.296875 4.570312 -7.050781 4.09375 -6.5625 C 3.613281 -6.070312 3.375 -5.445312 3.375 -4.6875 Z M 3.375 -4.6875 "/></g></g></g><g fill="#6e7172" fill-opacity="1"><g transform="translate(47.563131, 20.803643)"><g><path d="M 4.484375 0.171875 C 3.367188 0.171875 2.488281 -0.0820312 1.84375 -0.59375 C 1.207031 -1.113281 0.890625 -1.828125 0.890625 -2.734375 C 0.890625 -3.597656 1.175781 -4.285156 1.75 -4.796875 C 2.332031 -5.316406 3.113281 -5.578125 4.09375 -5.578125 L 7.46875 -5.578125 L 7.46875 -6.015625 C 7.46875 -6.472656 7.300781 -6.84375 6.96875 -7.125 C 6.644531 -7.40625 6.210938 -7.546875 5.671875 -7.546875 C 5.234375 -7.546875 4.859375 -7.441406 4.546875 -7.234375 C 4.242188 -7.035156 4.050781 -6.769531 3.96875 -6.4375 L 1.359375 -6.4375 C 1.523438 -7.457031 1.984375 -8.242188 2.734375 -8.796875 C 3.492188 -9.347656 4.46875 -9.625 5.65625 -9.625 C 7.0625 -9.625 8.160156 -9.269531 8.953125 -8.5625 C 9.742188 -7.851562 10.140625 -6.878906 10.140625 -5.640625 L 10.140625 0 L 8.125 0 L 7.8125 -1.09375 C 6.988281 -0.25 5.878906 0.171875 4.484375 0.171875 Z M 3.5625 -2.84375 C 3.5625 -2.519531 3.703125 -2.257812 3.984375 -2.0625 C 4.265625 -1.863281 4.640625 -1.765625 5.109375 -1.765625 C 5.785156 -1.765625 6.34375 -1.957031 6.78125 -2.34375 C 7.226562 -2.738281 7.46875 -3.253906 7.5 -3.890625 L 4.921875 -3.890625 C 4.515625 -3.890625 4.1875 -3.789062 3.9375 -3.59375 C 3.6875 -3.40625 3.5625 -3.15625 3.5625 -2.84375 Z M 3.5625 -2.84375 "/></g></g></g><g fill="#ffbd59" fill-opacity="1"><g transform="translate(57.992823, 20.803643)"><g><path d="M 1.5 0 L 1.5 -12.484375 L 6.390625 -12.484375 C 7.398438 -12.484375 8.273438 -12.300781 9.015625 -11.9375 C 9.753906 -11.570312 10.328125 -11.046875 10.734375 -10.359375 C 11.140625 -9.679688 11.34375 -8.882812 11.34375 -7.96875 C 11.34375 -7.070312 11.140625 -6.28125 10.734375 -5.59375 C 10.328125 -4.914062 9.753906 -4.394531 9.015625 -4.03125 C 8.273438 -3.664062 7.398438 -3.484375 6.390625 -3.484375 L 4.34375 -3.484375 L 4.34375 0 Z M 4.3125 -5.921875 L 6.15625 -5.921875 C 6.894531 -5.921875 7.460938 -6.097656 7.859375 -6.453125 C 8.253906 -6.804688 8.453125 -7.304688 8.453125 -7.953125 C 8.453125 -8.609375 8.253906 -9.113281 7.859375 -9.46875 C 7.460938 -9.832031 6.894531 -10.015625 6.15625 -10.015625 L 4.3125 -10.015625 Z M 4.3125 -5.921875 "/></g></g></g><g fill="#ffbd59" fill-opacity="1"><g transform="translate(68.966991, 20.803643)"><g><path d="M 4.484375 0.171875 C 3.367188 0.171875 2.488281 -0.0820312 1.84375 -0.59375 C 1.207031 -1.113281 0.890625 -1.828125 0.890625 -2.734375 C 0.890625 -3.597656 1.175781 -4.285156 1.75 -4.796875 C 2.332031 -5.316406 3.113281 -5.578125 4.09375 -5.578125 L 7.46875 -5.578125 L 7.46875 -6.015625 C 7.46875 -6.472656 7.300781 -6.84375 6.96875 -7.125 C 6.644531 -7.40625 6.210938 -7.546875 5.671875 -7.546875 C 5.234375 -7.546875 4.859375 -7.441406 4.546875 -7.234375 C 4.242188 -7.035156 4.050781 -6.769531 3.96875 -6.4375 L 1.359375 -6.4375 C 1.523438 -7.457031 1.984375 -8.242188 2.734375 -8.796875 C 3.492188 -9.347656 4.46875 -9.625 5.65625 -9.625 C 7.0625 -9.625 8.160156 -9.269531 8.953125 -8.5625 C 9.742188 -7.851562 10.140625 -6.878906 10.140625 -5.640625 L 10.140625 0 L 8.125 0 L 7.8125 -1.09375 C 6.988281 -0.25 5.878906 0.171875 4.484375 0.171875 Z M 3.5625 -2.84375 C 3.5625 -2.519531 3.703125 -2.257812 3.984375 -2.0625 C 4.265625 -1.863281 4.640625 -1.765625 5.109375 -1.765625 C 5.785156 -1.765625 6.34375 -1.957031 6.78125 -2.34375 C 7.226562 -2.738281 7.46875 -3.253906 7.5 -3.890625 L 4.921875 -3.890625 C 4.515625 -3.890625 4.1875 -3.789062 3.9375 -3.59375 C 3.6875 -3.40625 3.5625 -3.15625 3.5625 -2.84375 Z M 3.5625 -2.84375 "/></g></g></g><g fill="#ffbd59" fill-opacity="1"><g transform="translate(79.387976, 20.803643)"><g><path d="M 1.390625 3.5625 L 1.390625 1.234375 L 2.46875 1.234375 C 3.019531 1.234375 3.414062 1.144531 3.65625 0.96875 C 3.90625 0.800781 4.109375 0.484375 4.265625 0.015625 L 4.375 -0.296875 L 0.15625 -9.375 L 3.15625 -9.375 L 5.671875 -3.5625 L 6.53125 -5.953125 L 7.78125 -9.375 L 10.6875 -9.375 L 6.515625 1.109375 C 6.265625 1.742188 5.976562 2.238281 5.65625 2.59375 C 5.332031 2.957031 4.929688 3.207031 4.453125 3.34375 C 3.984375 3.488281 3.382812 3.5625 2.65625 3.5625 Z M 1.390625 3.5625 "/></g></g></g></svg>