<svg xmlns="http://www.w3.org/2000/svg" xmlns:xlink="http://www.w3.org/1999/xlink" width="500" zoomAndPan="magnify" viewBox="0 0 375 374.999991" height="500" preserveAspectRatio="xMidYMid meet" version="1.0"><defs><g/><clipPath id="95a1757e15"><path d="M 132.273438 101.714844 L 181.175781 101.714844 L 181.175781 182.96875 L 132.273438 182.96875 Z M 132.273438 101.714844 " clip-rule="nonzero"/></clipPath><clipPath id="3f09119201"><path d="M 190 76.8125 L 239.570312 76.8125 L 239.570312 159 L 190 159 Z M 190 76.8125 " clip-rule="nonzero"/></clipPath></defs><rect x="-37.5" width="450" fill="#ffffff" y="-37.499999" height="449.999989" fill-opacity="1"/><rect x="-37.5" width="450" fill="#ffffff" y="-37.499999" height="449.999989" fill-opacity="1"/><g clip-path="url(#95a1757e15)"><path fill="#6e7172" d="M 136.121094 105.289062 C 136.121094 104.097656 136.164062 102.914062 136.238281 101.742188 C 137.816406 126.574219 155.863281 146.921875 179.574219 152 L 181.101562 152.304688 L 175.242188 181.4375 L 174.886719 183.203125 C 150.28125 176.148438 132.273438 153.480469 132.273438 126.605469 C 132.273438 125.332031 132.316406 124.066406 132.398438 122.8125 C 133.898438 146.398438 149.289062 166.195312 170.472656 174.144531 L 173.816406 157.523438 C 151.917969 150.261719 136.121094 129.621094 136.121094 105.289062 " fill-opacity="1" fill-rule="nonzero"/></g><path fill="#6e7172" d="M 192.585938 142.441406 L 194.0625 141.941406 L 203.554688 170.101562 L 204.128906 171.808594 C 195.726562 173.902344 187.082031 174.070312 178.804688 172.476562 L 179.980469 166.628906 C 185.199219 167.179688 190.511719 167.042969 195.78125 166.171875 L 190.363281 150.105469 C 190.363281 150.105469 175.039062 150.816406 163.347656 143.664062 C 172.855469 145.859375 182.957031 145.550781 192.585938 142.441406 " fill-opacity="1" fill-rule="nonzero"/><path fill="#6e7172" d="M 222.40625 146.125 L 223.757812 147.316406 C 217.527344 153.332031 210.125 157.800781 202.15625 160.558594 L 200.253906 154.90625 C 205.050781 152.773438 209.585938 150 213.707031 146.609375 L 200.984375 135.40625 C 200.984375 135.40625 190.328125 142.214844 174.355469 143.339844 C 183.691406 140.488281 192.292969 135.167969 199.078125 127.65625 L 200.105469 126.488281 L 222.40625 146.125 " fill-opacity="1" fill-rule="nonzero"/><path fill="#6e7172" d="M 156.6875 151.640625 C 153.914062 151.640625 151.667969 153.886719 151.667969 156.660156 C 151.667969 159.429688 153.914062 161.679688 156.6875 161.679688 C 159.460938 161.679688 161.707031 159.429688 161.707031 156.660156 C 161.707031 153.886719 159.460938 151.640625 156.6875 151.640625 " fill-opacity="1" fill-rule="nonzero"/><path fill="#6e7172" d="M 186.121094 153.75 C 183.917969 153.75 182.128906 155.535156 182.128906 157.742188 C 182.128906 159.949219 183.917969 161.738281 186.121094 161.738281 C 188.328125 161.738281 190.117188 159.949219 190.117188 157.742188 C 190.117188 155.535156 188.328125 153.75 186.121094 153.75 " fill-opacity="1" fill-rule="nonzero"/><path fill="#6e7172" d="M 202.5 141.335938 C 200.617188 141.335938 199.097656 142.859375 199.097656 144.738281 C 199.097656 146.617188 200.617188 148.140625 202.5 148.140625 C 204.375 148.140625 205.898438 146.617188 205.898438 144.738281 C 205.898438 142.859375 204.375 141.335938 202.5 141.335938 " fill-opacity="1" fill-rule="nonzero"/><g clip-path="url(#3f09119201)"><path fill="#ffbd59" d="M 235.601562 154.730469 C 235.601562 155.917969 235.5625 157.101562 235.488281 158.273438 C 233.90625 133.445312 215.863281 113.09375 192.148438 108.015625 L 190.625 107.710938 L 196.480469 78.578125 L 196.835938 76.8125 C 221.445312 83.871094 239.453125 106.535156 239.453125 133.414062 C 239.453125 134.6875 239.40625 135.949219 239.328125 137.203125 C 237.828125 113.621094 222.4375 93.820312 201.25 85.871094 L 197.910156 102.492188 C 219.804688 109.753906 235.601562 130.394531 235.601562 154.730469 " fill-opacity="1" fill-rule="nonzero"/></g><path fill="#ffbd59" d="M 179.136719 117.578125 L 177.660156 118.074219 L 168.167969 89.914062 L 167.59375 88.210938 C 176 86.113281 184.640625 85.949219 192.921875 87.542969 L 191.746094 93.390625 C 186.523438 92.839844 181.210938 92.972656 175.945312 93.847656 L 181.363281 109.914062 C 181.363281 109.914062 196.6875 109.199219 208.375 116.351562 C 198.867188 114.15625 188.765625 114.464844 179.136719 117.578125 " fill-opacity="1" fill-rule="nonzero"/><path fill="#ffbd59" d="M 149.316406 113.890625 L 147.96875 112.699219 C 154.199219 106.683594 161.597656 102.214844 169.566406 99.457031 L 171.472656 105.109375 C 166.675781 107.242188 162.140625 110.015625 158.019531 113.40625 L 170.742188 124.613281 C 170.742188 124.613281 181.398438 117.800781 197.371094 116.675781 C 188.035156 119.53125 179.433594 124.847656 172.648438 132.363281 L 171.617188 133.53125 L 149.316406 113.890625 " fill-opacity="1" fill-rule="nonzero"/><path fill="#ffbd59" d="M 215.039062 108.378906 C 217.8125 108.378906 220.058594 106.128906 220.058594 103.359375 C 220.058594 100.585938 217.8125 98.335938 215.039062 98.335938 C 212.265625 98.335938 210.015625 100.585938 210.015625 103.359375 C 210.015625 106.128906 212.265625 108.378906 215.039062 108.378906 " fill-opacity="1" fill-rule="nonzero"/><path fill="#ffbd59" d="M 185.601562 106.269531 C 187.808594 106.269531 189.597656 104.480469 189.597656 102.273438 C 189.597656 100.066406 187.808594 98.28125 185.601562 98.28125 C 183.398438 98.28125 181.609375 100.066406 181.609375 102.273438 C 181.609375 104.480469 183.398438 106.269531 185.601562 106.269531 " fill-opacity="1" fill-rule="nonzero"/><path fill="#ffbd59" d="M 169.226562 118.679688 C 171.105469 118.679688 172.628906 117.15625 172.628906 115.277344 C 172.628906 113.398438 171.105469 111.875 169.226562 111.875 C 167.347656 111.875 165.824219 113.398438 165.824219 115.277344 C 165.824219 117.15625 167.347656 118.679688 169.226562 118.679688 " fill-opacity="1" fill-rule="nonzero"/><g fill="#6e7172" fill-opacity="1"><g transform="translate(10.720093, 241.839832)"><g><path d="M 5.953125 0 L 5.953125 -49.5625 L 17.203125 -49.5625 L 17.203125 -30.515625 L 21.453125 -30.515625 C 24.242188 -30.515625 26.285156 -30.960938 27.578125 -31.859375 C 28.878906 -32.765625 29.953125 -34.375 30.796875 -36.6875 L 35.484375 -49.5625 L 47.65625 -49.5625 L 40.78125 -31.9375 C 40.175781 -30.332031 39.484375 -28.890625 38.703125 -27.609375 C 37.921875 -26.335938 37.035156 -25.226562 36.046875 -24.28125 L 49.421875 0 L 36.328125 0 L 25.703125 -20.109375 C 25.273438 -20.066406 24.859375 -20.046875 24.453125 -20.046875 C 24.054688 -20.046875 23.625 -20.046875 23.15625 -20.046875 L 17.203125 -20.046875 L 17.203125 0 Z M 5.953125 0 "/></g></g></g><g fill="#6e7172" fill-opacity="1"><g transform="translate(58.654075, 241.839832)"><g><path d="M 20.1875 0.984375 C 15.363281 0.984375 11.570312 -0.535156 8.8125 -3.578125 C 6.050781 -6.617188 4.671875 -10.710938 4.671875 -15.859375 L 4.671875 -37.171875 L 15.4375 -37.171875 L 15.4375 -16.921875 C 15.4375 -14.179688 16.082031 -12.054688 17.375 -10.546875 C 18.675781 -9.035156 20.460938 -8.28125 22.734375 -8.28125 C 25.179688 -8.28125 27.132812 -9.128906 28.59375 -10.828125 C 30.0625 -12.535156 30.796875 -14.851562 30.796875 -17.78125 L 30.796875 -37.171875 L 41.5625 -37.171875 L 41.5625 0 L 33.5625 0 L 32.4375 -4.171875 C 30.96875 -2.429688 29.171875 -1.132812 27.046875 -0.28125 C 24.921875 0.5625 22.632812 0.984375 20.1875 0.984375 Z M 20.1875 0.984375 "/></g></g></g><g fill="#6e7172" fill-opacity="1"><g transform="translate(102.0566, 241.839832)"><g><path d="M 5.375 0 L 5.375 -37.171875 L 13.390625 -37.171875 L 14.515625 -33 C 16.023438 -34.75 17.851562 -36.046875 20 -36.890625 C 22.144531 -37.742188 24.445312 -38.171875 26.90625 -38.171875 C 31.769531 -38.171875 35.582031 -36.660156 38.34375 -33.640625 C 41.101562 -30.617188 42.484375 -26.535156 42.484375 -21.390625 L 42.484375 0 L 31.71875 0 L 31.71875 -20.25 C 31.71875 -22.988281 31.066406 -25.125 29.765625 -26.65625 C 28.472656 -28.195312 26.671875 -28.96875 24.359375 -28.96875 C 21.898438 -28.96875 19.914062 -28.113281 18.40625 -26.40625 C 16.894531 -24.707031 16.140625 -22.394531 16.140625 -19.46875 L 16.140625 0 Z M 5.375 0 "/></g></g></g><g fill="#6e7172" fill-opacity="1"><g transform="translate(145.671541, 241.839832)"><g><path d="M 21.671875 0.984375 C 17.984375 0.984375 14.722656 0.148438 11.890625 -1.515625 C 9.054688 -3.191406 6.828125 -5.503906 5.203125 -8.453125 C 3.578125 -11.410156 2.765625 -14.800781 2.765625 -18.625 C 2.765625 -22.445312 3.578125 -25.820312 5.203125 -28.75 C 6.828125 -31.675781 9.054688 -33.976562 11.890625 -35.65625 C 14.722656 -37.332031 17.984375 -38.171875 21.671875 -38.171875 C 23.984375 -38.171875 26.128906 -37.828125 28.109375 -37.140625 C 30.097656 -36.453125 31.894531 -35.492188 33.5 -34.265625 L 33.5 -52.40625 L 44.25 -52.40625 L 44.25 0 L 36.25 0 L 34.984375 -4.25 C 33.328125 -2.59375 31.363281 -1.304688 29.09375 -0.390625 C 26.832031 0.523438 24.359375 0.984375 21.671875 0.984375 Z M 13.390625 -18.625 C 13.390625 -15.601562 14.34375 -13.125 16.25 -11.1875 C 18.164062 -9.25 20.632812 -8.28125 23.65625 -8.28125 C 26.675781 -8.28125 29.128906 -9.25 31.015625 -11.1875 C 32.898438 -13.125 33.84375 -15.601562 33.84375 -18.625 C 33.84375 -21.644531 32.898438 -24.125 31.015625 -26.0625 C 29.128906 -28 26.675781 -28.96875 23.65625 -28.96875 C 20.632812 -28.96875 18.164062 -28 16.25 -26.0625 C 14.34375 -24.125 13.390625 -21.644531 13.390625 -18.625 Z M 13.390625 -18.625 "/></g></g></g><g fill="#6e7172" fill-opacity="1"><g transform="translate(191.764619, 241.839832)"><g><path d="M 17.78125 0.703125 C 13.382812 0.703125 9.910156 -0.320312 7.359375 -2.375 C 4.816406 -4.425781 3.546875 -7.242188 3.546875 -10.828125 C 3.546875 -14.273438 4.6875 -17.023438 6.96875 -19.078125 C 9.257812 -21.140625 12.34375 -22.171875 16.21875 -22.171875 L 29.671875 -22.171875 L 29.671875 -23.859375 C 29.671875 -25.703125 29.007812 -27.175781 27.6875 -28.28125 C 26.363281 -29.394531 24.640625 -29.953125 22.515625 -29.953125 C 20.765625 -29.953125 19.273438 -29.550781 18.046875 -28.75 C 16.828125 -27.945312 16.050781 -26.882812 15.71875 -25.5625 L 5.375 -25.5625 C 6.039062 -29.625 7.867188 -32.738281 10.859375 -34.90625 C 13.859375 -37.082031 17.722656 -38.171875 22.453125 -38.171875 C 28.015625 -38.171875 32.363281 -36.765625 35.5 -33.953125 C 38.644531 -31.140625 40.21875 -27.28125 40.21875 -22.375 L 40.21875 0 L 32.21875 0 L 31.015625 -4.3125 C 27.753906 -0.96875 23.34375 0.703125 17.78125 0.703125 Z M 14.15625 -11.265625 C 14.15625 -9.984375 14.707031 -8.953125 15.8125 -8.171875 C 16.925781 -7.398438 18.40625 -7.015625 20.25 -7.015625 C 22.9375 -7.015625 25.164062 -7.789062 26.9375 -9.34375 C 28.707031 -10.90625 29.640625 -12.9375 29.734375 -15.4375 L 19.546875 -15.4375 C 17.941406 -15.4375 16.640625 -15.054688 15.640625 -14.296875 C 14.648438 -13.546875 14.15625 -12.535156 14.15625 -11.265625 Z M 14.15625 -11.265625 "/></g></g></g><g fill="#ffbd59" fill-opacity="1"><g transform="translate(233.12286, 241.839832)"><g><path d="M 5.953125 0 L 5.953125 -49.5625 L 25.34375 -49.5625 C 29.363281 -49.5625 32.835938 -48.828125 35.765625 -47.359375 C 38.691406 -45.898438 40.96875 -43.828125 42.59375 -41.140625 C 44.21875 -38.453125 45.03125 -35.289062 45.03125 -31.65625 C 45.03125 -28.0625 44.21875 -24.921875 42.59375 -22.234375 C 40.96875 -19.546875 38.691406 -17.46875 35.765625 -16 C 32.835938 -14.539062 29.363281 -13.8125 25.34375 -13.8125 L 17.203125 -13.8125 L 17.203125 0 Z M 17.140625 -23.515625 L 24.4375 -23.515625 C 27.363281 -23.515625 29.613281 -24.207031 31.1875 -25.59375 C 32.769531 -26.988281 33.5625 -28.984375 33.5625 -31.578125 C 33.5625 -34.179688 32.769531 -36.1875 31.1875 -37.59375 C 29.613281 -39.007812 27.363281 -39.71875 24.4375 -39.71875 L 17.140625 -39.71875 Z M 17.140625 -23.515625 "/></g></g></g><g fill="#ffbd59" fill-opacity="1"><g transform="translate(276.667003, 241.839832)"><g><path d="M 17.78125 0.703125 C 13.382812 0.703125 9.910156 -0.320312 7.359375 -2.375 C 4.816406 -4.425781 3.546875 -7.242188 3.546875 -10.828125 C 3.546875 -14.273438 4.6875 -17.023438 6.96875 -19.078125 C 9.257812 -21.140625 12.34375 -22.171875 16.21875 -22.171875 L 29.671875 -22.171875 L 29.671875 -23.859375 C 29.671875 -25.703125 29.007812 -27.175781 27.6875 -28.28125 C 26.363281 -29.394531 24.640625 -29.953125 22.515625 -29.953125 C 20.765625 -29.953125 19.273438 -29.550781 18.046875 -28.75 C 16.828125 -27.945312 16.050781 -26.882812 15.71875 -25.5625 L 5.375 -25.5625 C 6.039062 -29.625 7.867188 -32.738281 10.859375 -34.90625 C 13.859375 -37.082031 17.722656 -38.171875 22.453125 -38.171875 C 28.015625 -38.171875 32.363281 -36.765625 35.5 -33.953125 C 38.644531 -31.140625 40.21875 -27.28125 40.21875 -22.375 L 40.21875 0 L 32.21875 0 L 31.015625 -4.3125 C 27.753906 -0.96875 23.34375 0.703125 17.78125 0.703125 Z M 14.15625 -11.265625 C 14.15625 -9.984375 14.707031 -8.953125 15.8125 -8.171875 C 16.925781 -7.398438 18.40625 -7.015625 20.25 -7.015625 C 22.9375 -7.015625 25.164062 -7.789062 26.9375 -9.34375 C 28.707031 -10.90625 29.640625 -12.9375 29.734375 -15.4375 L 19.546875 -15.4375 C 17.941406 -15.4375 16.640625 -15.054688 15.640625 -14.296875 C 14.648438 -13.546875 14.15625 -12.535156 14.15625 -11.265625 Z M 14.15625 -11.265625 "/></g></g></g><g fill="#ffbd59" fill-opacity="1"><g transform="translate(318.016219, 241.839832)"><g><path d="M 5.515625 14.15625 L 5.515625 4.890625 L 9.765625 4.890625 C 11.984375 4.890625 13.578125 4.546875 14.546875 3.859375 C 15.515625 3.171875 16.304688 1.910156 16.921875 0.078125 L 17.34375 -1.203125 L 0.640625 -37.171875 L 12.53125 -37.171875 L 22.515625 -14.15625 L 25.921875 -23.65625 L 30.875 -37.171875 L 42.421875 -37.171875 L 25.84375 4.390625 C 24.851562 6.941406 23.71875 8.925781 22.4375 10.34375 C 21.164062 11.757812 19.585938 12.75 17.703125 13.3125 C 15.816406 13.875 13.429688 14.15625 10.546875 14.15625 Z M 5.515625 14.15625 "/></g></g></g><g fill="#6e7172" fill-opacity="1"><g transform="translate(55.717687, 266.175824)"><g><path d="M 1.640625 0 L 1.640625 -11.296875 L 3.0625 -11.296875 L 3.0625 -1.359375 L 8.546875 -1.359375 L 8.546875 0 Z M 1.640625 0 "/></g></g></g><g fill="#6e7172" fill-opacity="1"><g transform="translate(64.765103, 266.175824)"><g><path d="M 5.125 0.203125 C 4.289062 0.203125 3.550781 0.0195312 2.90625 -0.34375 C 2.257812 -0.71875 1.753906 -1.238281 1.390625 -1.90625 C 1.023438 -2.570312 0.84375 -3.335938 0.84375 -4.203125 C 0.84375 -5.054688 1.023438 -5.8125 1.390625 -6.46875 C 1.753906 -7.132812 2.257812 -7.65625 2.90625 -8.03125 C 3.5625 -8.40625 4.3125 -8.59375 5.15625 -8.59375 C 6.039062 -8.59375 6.8125 -8.378906 7.46875 -7.953125 C 8.125 -7.535156 8.625 -6.957031 8.96875 -6.21875 C 9.320312 -5.476562 9.484375 -4.617188 9.453125 -3.640625 L 2.21875 -3.640625 C 2.320312 -2.859375 2.632812 -2.234375 3.15625 -1.765625 C 3.6875 -1.296875 4.351562 -1.0625 5.15625 -1.0625 C 5.695312 -1.0625 6.191406 -1.179688 6.640625 -1.421875 C 7.097656 -1.660156 7.457031 -2 7.71875 -2.4375 L 9.25 -2.4375 C 8.914062 -1.613281 8.378906 -0.96875 7.640625 -0.5 C 6.910156 -0.03125 6.070312 0.203125 5.125 0.203125 Z M 2.234375 -4.84375 L 8.109375 -4.84375 C 7.960938 -5.601562 7.625 -6.203125 7.09375 -6.640625 C 6.5625 -7.085938 5.914062 -7.3125 5.15625 -7.3125 C 4.375 -7.3125 3.71875 -7.082031 3.1875 -6.625 C 2.664062 -6.175781 2.347656 -5.582031 2.234375 -4.84375 Z M 2.234375 -4.84375 "/></g></g></g><g fill="#6e7172" fill-opacity="1"><g transform="translate(75.022066, 266.175824)"><g/></g></g><g fill="#6e7172" fill-opacity="1"><g transform="translate(79.021643, 266.175824)"><g><path d="M 5.109375 0 C 4.191406 0 3.472656 -0.257812 2.953125 -0.78125 C 2.441406 -1.3125 2.1875 -2.054688 2.1875 -3.015625 L 2.1875 -7.140625 L 0.4375 -7.140625 L 0.4375 -8.375 L 1.28125 -8.375 C 1.664062 -8.375 1.929688 -8.4375 2.078125 -8.5625 C 2.234375 -8.695312 2.332031 -8.953125 2.375 -9.328125 L 2.5 -10.453125 L 3.546875 -10.453125 L 3.546875 -8.375 L 6.265625 -8.375 L 6.265625 -7.140625 L 3.546875 -7.140625 L 3.546875 -3.078125 C 3.546875 -1.898438 4.09375 -1.3125 5.1875 -1.3125 L 6.375 -1.3125 L 6.375 0 Z M 5.109375 0 "/></g></g></g><g fill="#6e7172" fill-opacity="1"><g transform="translate(86.182166, 266.175824)"><g><path d="M 1.5 0 L 1.5 -8.375 L 2.609375 -8.375 L 2.78125 -6.921875 C 3.082031 -7.429688 3.453125 -7.800781 3.890625 -8.03125 C 4.335938 -8.257812 4.921875 -8.375 5.640625 -8.375 L 6.390625 -8.375 L 6.390625 -7.125 L 5.5625 -7.125 C 5.0625 -7.125 4.601562 -7.019531 4.1875 -6.8125 C 3.78125 -6.601562 3.457031 -6.257812 3.21875 -5.78125 C 2.976562 -5.3125 2.859375 -4.679688 2.859375 -3.890625 L 2.859375 0 Z M 1.5 0 "/></g></g></g><g fill="#6e7172" fill-opacity="1"><g transform="translate(93.213663, 266.175824)"><g><path d="M 4.25 0.125 C 3.238281 0.125 2.445312 -0.101562 1.875 -0.5625 C 1.300781 -1.019531 1.015625 -1.640625 1.015625 -2.421875 C 1.015625 -3.179688 1.273438 -3.785156 1.796875 -4.234375 C 2.328125 -4.691406 3.03125 -4.921875 3.90625 -4.921875 L 7.328125 -4.921875 L 7.328125 -5.234375 C 7.328125 -5.890625 7.117188 -6.398438 6.703125 -6.765625 C 6.296875 -7.140625 5.738281 -7.328125 5.03125 -7.328125 C 4.5 -7.328125 4.03125 -7.203125 3.625 -6.953125 C 3.226562 -6.710938 2.960938 -6.390625 2.828125 -5.984375 L 1.453125 -5.984375 C 1.640625 -6.796875 2.050781 -7.429688 2.6875 -7.890625 C 3.320312 -8.359375 4.097656 -8.59375 5.015625 -8.59375 C 5.753906 -8.59375 6.394531 -8.453125 6.9375 -8.171875 C 7.488281 -7.898438 7.914062 -7.519531 8.21875 -7.03125 C 8.53125 -6.539062 8.6875 -5.972656 8.6875 -5.328125 L 8.6875 0 L 7.5625 0 L 7.421875 -1.15625 C 6.660156 -0.300781 5.601562 0.125 4.25 0.125 Z M 2.375 -2.4375 C 2.375 -2.03125 2.546875 -1.703125 2.890625 -1.453125 C 3.234375 -1.203125 3.703125 -1.078125 4.296875 -1.078125 C 4.878906 -1.078125 5.394531 -1.191406 5.84375 -1.421875 C 6.289062 -1.648438 6.648438 -1.960938 6.921875 -2.359375 C 7.191406 -2.753906 7.332031 -3.210938 7.34375 -3.734375 L 3.953125 -3.734375 C 3.492188 -3.734375 3.113281 -3.613281 2.8125 -3.375 C 2.519531 -3.144531 2.375 -2.832031 2.375 -2.4375 Z M 2.375 -2.4375 "/></g></g></g><g fill="#6e7172" fill-opacity="1"><g transform="translate(103.21259, 266.175824)"><g><path d="M 1.5 0 L 1.5 -8.375 L 2.609375 -8.375 L 2.765625 -7.15625 C 3.128906 -7.65625 3.570312 -8.019531 4.09375 -8.25 C 4.613281 -8.476562 5.15625 -8.59375 5.71875 -8.59375 C 6.832031 -8.59375 7.703125 -8.234375 8.328125 -7.515625 C 8.953125 -6.804688 9.265625 -5.859375 9.265625 -4.671875 L 9.265625 0 L 7.90625 0 L 7.90625 -4.53125 C 7.90625 -5.382812 7.691406 -6.054688 7.265625 -6.546875 C 6.847656 -7.046875 6.269531 -7.296875 5.53125 -7.296875 C 5.019531 -7.296875 4.5625 -7.164062 4.15625 -6.90625 C 3.75 -6.65625 3.429688 -6.300781 3.203125 -5.84375 C 2.972656 -5.382812 2.859375 -4.847656 2.859375 -4.234375 L 2.859375 0 Z M 1.5 0 "/></g></g></g><g fill="#6e7172" fill-opacity="1"><g transform="translate(113.808226, 266.175824)"><g><path d="M 4.53125 0.203125 C 3.4375 0.203125 2.554688 -0.0546875 1.890625 -0.578125 C 1.234375 -1.097656 0.894531 -1.78125 0.875 -2.625 L 2.21875 -2.625 C 2.238281 -2.125 2.453125 -1.726562 2.859375 -1.4375 C 3.265625 -1.144531 3.828125 -1 4.546875 -1 C 5.179688 -1 5.679688 -1.109375 6.046875 -1.328125 C 6.410156 -1.546875 6.59375 -1.847656 6.59375 -2.234375 C 6.59375 -2.609375 6.398438 -2.910156 6.015625 -3.140625 C 5.640625 -3.378906 5.046875 -3.570312 4.234375 -3.71875 C 3.148438 -3.894531 2.347656 -4.1875 1.828125 -4.59375 C 1.304688 -5.007812 1.046875 -5.546875 1.046875 -6.203125 C 1.046875 -6.953125 1.332031 -7.535156 1.90625 -7.953125 C 2.488281 -8.378906 3.285156 -8.59375 4.296875 -8.59375 C 5.328125 -8.59375 6.148438 -8.363281 6.765625 -7.90625 C 7.390625 -7.445312 7.726562 -6.800781 7.78125 -5.96875 L 6.4375 -5.96875 C 6.394531 -6.4375 6.1875 -6.789062 5.8125 -7.03125 C 5.445312 -7.269531 4.945312 -7.390625 4.3125 -7.390625 C 3.707031 -7.390625 3.234375 -7.285156 2.890625 -7.078125 C 2.554688 -6.867188 2.390625 -6.578125 2.390625 -6.203125 C 2.390625 -5.847656 2.5625 -5.566406 2.90625 -5.359375 C 3.25 -5.160156 3.859375 -4.976562 4.734375 -4.8125 C 6.867188 -4.394531 7.9375 -3.519531 7.9375 -2.1875 C 7.9375 -1.46875 7.625 -0.890625 7 -0.453125 C 6.382812 -0.015625 5.5625 0.203125 4.53125 0.203125 Z M 4.53125 0.203125 "/></g></g></g><g fill="#6e7172" fill-opacity="1"><g transform="translate(122.613735, 266.175824)"><g><path d="M 2.3125 -9.234375 C 2.3125 -10.191406 2.5625 -10.914062 3.0625 -11.40625 C 3.5625 -11.90625 4.285156 -12.15625 5.234375 -12.15625 L 6.671875 -12.15625 L 6.671875 -10.875 L 5.359375 -10.875 C 4.765625 -10.875 4.332031 -10.738281 4.0625 -10.46875 C 3.789062 -10.195312 3.65625 -9.757812 3.65625 -9.15625 L 3.65625 -8.375 L 6.578125 -8.375 L 6.578125 -7.140625 L 3.65625 -7.140625 L 3.65625 0 L 2.3125 0 L 2.3125 -7.140625 L 0.484375 -7.140625 L 0.484375 -8.375 L 2.3125 -8.375 Z M 2.3125 -9.234375 "/></g></g></g><g fill="#6e7172" fill-opacity="1"><g transform="translate(129.435585, 266.175824)"><g><path d="M 5.125 0.203125 C 4.289062 0.203125 3.550781 0.0195312 2.90625 -0.34375 C 2.257812 -0.71875 1.753906 -1.238281 1.390625 -1.90625 C 1.023438 -2.570312 0.84375 -3.335938 0.84375 -4.203125 C 0.84375 -5.054688 1.023438 -5.8125 1.390625 -6.46875 C 1.753906 -7.132812 2.257812 -7.65625 2.90625 -8.03125 C 3.5625 -8.40625 4.3125 -8.59375 5.15625 -8.59375 C 6.039062 -8.59375 6.8125 -8.378906 7.46875 -7.953125 C 8.125 -7.535156 8.625 -6.957031 8.96875 -6.21875 C 9.320312 -5.476562 9.484375 -4.617188 9.453125 -3.640625 L 2.21875 -3.640625 C 2.320312 -2.859375 2.632812 -2.234375 3.15625 -1.765625 C 3.6875 -1.296875 4.351562 -1.0625 5.15625 -1.0625 C 5.695312 -1.0625 6.191406 -1.179688 6.640625 -1.421875 C 7.097656 -1.660156 7.457031 -2 7.71875 -2.4375 L 9.25 -2.4375 C 8.914062 -1.613281 8.378906 -0.96875 7.640625 -0.5 C 6.910156 -0.03125 6.070312 0.203125 5.125 0.203125 Z M 2.234375 -4.84375 L 8.109375 -4.84375 C 7.960938 -5.601562 7.625 -6.203125 7.09375 -6.640625 C 6.5625 -7.085938 5.914062 -7.3125 5.15625 -7.3125 C 4.375 -7.3125 3.71875 -7.082031 3.1875 -6.625 C 2.664062 -6.175781 2.347656 -5.582031 2.234375 -4.84375 Z M 2.234375 -4.84375 "/></g></g></g><g fill="#6e7172" fill-opacity="1"><g transform="translate(139.692549, 266.175824)"><g><path d="M 1.5 0 L 1.5 -8.375 L 2.609375 -8.375 L 2.78125 -6.921875 C 3.082031 -7.429688 3.453125 -7.800781 3.890625 -8.03125 C 4.335938 -8.257812 4.921875 -8.375 5.640625 -8.375 L 6.390625 -8.375 L 6.390625 -7.125 L 5.5625 -7.125 C 5.0625 -7.125 4.601562 -7.019531 4.1875 -6.8125 C 3.78125 -6.601562 3.457031 -6.257812 3.21875 -5.78125 C 2.976562 -5.3125 2.859375 -4.679688 2.859375 -3.890625 L 2.859375 0 Z M 1.5 0 "/></g></g></g><g fill="#6e7172" fill-opacity="1"><g transform="translate(146.724046, 266.175824)"><g><path d="M 5.109375 0 C 4.191406 0 3.472656 -0.257812 2.953125 -0.78125 C 2.441406 -1.3125 2.1875 -2.054688 2.1875 -3.015625 L 2.1875 -7.140625 L 0.4375 -7.140625 L 0.4375 -8.375 L 1.28125 -8.375 C 1.664062 -8.375 1.929688 -8.4375 2.078125 -8.5625 C 2.234375 -8.695312 2.332031 -8.953125 2.375 -9.328125 L 2.5 -10.453125 L 3.546875 -10.453125 L 3.546875 -8.375 L 6.265625 -8.375 L 6.265625 -7.140625 L 3.546875 -7.140625 L 3.546875 -3.078125 C 3.546875 -1.898438 4.09375 -1.3125 5.1875 -1.3125 L 6.375 -1.3125 L 6.375 0 Z M 5.109375 0 "/></g></g></g><g fill="#6e7172" fill-opacity="1"><g transform="translate(153.884569, 266.175824)"><g/></g></g><g fill="#6e7172" fill-opacity="1"><g transform="translate(157.884145, 266.175824)"><g><path d="M 5.125 0.203125 C 4.289062 0.203125 3.550781 0.0195312 2.90625 -0.34375 C 2.257812 -0.71875 1.753906 -1.238281 1.390625 -1.90625 C 1.023438 -2.570312 0.84375 -3.335938 0.84375 -4.203125 C 0.84375 -5.054688 1.023438 -5.8125 1.390625 -6.46875 C 1.753906 -7.132812 2.257812 -7.65625 2.90625 -8.03125 C 3.5625 -8.40625 4.3125 -8.59375 5.15625 -8.59375 C 6.039062 -8.59375 6.8125 -8.378906 7.46875 -7.953125 C 8.125 -7.535156 8.625 -6.957031 8.96875 -6.21875 C 9.320312 -5.476562 9.484375 -4.617188 9.453125 -3.640625 L 2.21875 -3.640625 C 2.320312 -2.859375 2.632812 -2.234375 3.15625 -1.765625 C 3.6875 -1.296875 4.351562 -1.0625 5.15625 -1.0625 C 5.695312 -1.0625 6.191406 -1.179688 6.640625 -1.421875 C 7.097656 -1.660156 7.457031 -2 7.71875 -2.4375 L 9.25 -2.4375 C 8.914062 -1.613281 8.378906 -0.96875 7.640625 -0.5 C 6.910156 -0.03125 6.070312 0.203125 5.125 0.203125 Z M 2.234375 -4.84375 L 8.109375 -4.84375 C 7.960938 -5.601562 7.625 -6.203125 7.09375 -6.640625 C 6.5625 -7.085938 5.914062 -7.3125 5.15625 -7.3125 C 4.375 -7.3125 3.71875 -7.082031 3.1875 -6.625 C 2.664062 -6.175781 2.347656 -5.582031 2.234375 -4.84375 Z M 2.234375 -4.84375 "/></g></g></g><g fill="#6e7172" fill-opacity="1"><g transform="translate(168.141109, 266.175824)"><g><path d="M 1.5 0 L 1.5 -8.375 L 2.609375 -8.375 L 2.765625 -7.15625 C 3.128906 -7.65625 3.570312 -8.019531 4.09375 -8.25 C 4.613281 -8.476562 5.15625 -8.59375 5.71875 -8.59375 C 6.832031 -8.59375 7.703125 -8.234375 8.328125 -7.515625 C 8.953125 -6.804688 9.265625 -5.859375 9.265625 -4.671875 L 9.265625 0 L 7.90625 0 L 7.90625 -4.53125 C 7.90625 -5.382812 7.691406 -6.054688 7.265625 -6.546875 C 6.847656 -7.046875 6.269531 -7.296875 5.53125 -7.296875 C 5.019531 -7.296875 4.5625 -7.164062 4.15625 -6.90625 C 3.75 -6.65625 3.429688 -6.300781 3.203125 -5.84375 C 2.972656 -5.382812 2.859375 -4.847656 2.859375 -4.234375 L 2.859375 0 Z M 1.5 0 "/></g></g></g><g fill="#6e7172" fill-opacity="1"><g transform="translate(178.736745, 266.175824)"><g/></g></g><g fill="#6e7172" fill-opacity="1"><g transform="translate(182.736321, 266.175824)"><g><path d="M 5.109375 0 C 4.191406 0 3.472656 -0.257812 2.953125 -0.78125 C 2.441406 -1.3125 2.1875 -2.054688 2.1875 -3.015625 L 2.1875 -7.140625 L 0.4375 -7.140625 L 0.4375 -8.375 L 1.28125 -8.375 C 1.664062 -8.375 1.929688 -8.4375 2.078125 -8.5625 C 2.234375 -8.695312 2.332031 -8.953125 2.375 -9.328125 L 2.5 -10.453125 L 3.546875 -10.453125 L 3.546875 -8.375 L 6.265625 -8.375 L 6.265625 -7.140625 L 3.546875 -7.140625 L 3.546875 -3.078125 C 3.546875 -1.898438 4.09375 -1.3125 5.1875 -1.3125 L 6.375 -1.3125 L 6.375 0 Z M 5.109375 0 "/></g></g></g><g fill="#6e7172" fill-opacity="1"><g transform="translate(189.896844, 266.175824)"><g><path d="M 5.28125 0.203125 C 4.40625 0.203125 3.632812 0.015625 2.96875 -0.359375 C 2.300781 -0.734375 1.78125 -1.253906 1.40625 -1.921875 C 1.03125 -2.585938 0.84375 -3.347656 0.84375 -4.203125 C 0.84375 -5.054688 1.03125 -5.8125 1.40625 -6.46875 C 1.78125 -7.125 2.300781 -7.640625 2.96875 -8.015625 C 3.632812 -8.398438 4.40625 -8.59375 5.28125 -8.59375 C 6.144531 -8.59375 6.910156 -8.398438 7.578125 -8.015625 C 8.253906 -7.640625 8.78125 -7.125 9.15625 -6.46875 C 9.53125 -5.8125 9.71875 -5.054688 9.71875 -4.203125 C 9.71875 -3.347656 9.53125 -2.585938 9.15625 -1.921875 C 8.78125 -1.253906 8.253906 -0.734375 7.578125 -0.359375 C 6.910156 0.015625 6.144531 0.203125 5.28125 0.203125 Z M 2.1875 -4.203125 C 2.1875 -3.585938 2.316406 -3.046875 2.578125 -2.578125 C 2.847656 -2.109375 3.210938 -1.742188 3.671875 -1.484375 C 4.140625 -1.222656 4.675781 -1.09375 5.28125 -1.09375 C 5.882812 -1.09375 6.414062 -1.222656 6.875 -1.484375 C 7.332031 -1.742188 7.691406 -2.109375 7.953125 -2.578125 C 8.222656 -3.046875 8.359375 -3.585938 8.359375 -4.203125 C 8.359375 -4.804688 8.222656 -5.335938 7.953125 -5.796875 C 7.691406 -6.265625 7.332031 -6.628906 6.875 -6.890625 C 6.414062 -7.160156 5.882812 -7.296875 5.28125 -7.296875 C 4.675781 -7.296875 4.140625 -7.160156 3.671875 -6.890625 C 3.210938 -6.628906 2.847656 -6.265625 2.578125 -5.796875 C 2.316406 -5.335938 2.1875 -4.804688 2.1875 -4.203125 Z M 2.1875 -4.203125 "/></g></g></g><g fill="#6e7172" fill-opacity="1"><g transform="translate(200.44409, 266.175824)"><g><path d="M 4.84375 0.203125 C 3.75 0.203125 2.890625 -0.148438 2.265625 -0.859375 C 1.648438 -1.566406 1.34375 -2.519531 1.34375 -3.71875 L 1.34375 -8.375 L 2.703125 -8.375 L 2.703125 -3.84375 C 2.703125 -3 2.90625 -2.328125 3.3125 -1.828125 C 3.726562 -1.335938 4.296875 -1.09375 5.015625 -1.09375 C 5.804688 -1.09375 6.445312 -1.375 6.9375 -1.9375 C 7.425781 -2.5 7.671875 -3.234375 7.671875 -4.140625 L 7.671875 -8.375 L 9.015625 -8.375 L 9.015625 0 L 7.90625 0 L 7.765625 -1.234375 C 7.398438 -0.734375 6.960938 -0.367188 6.453125 -0.140625 C 5.941406 0.0859375 5.40625 0.203125 4.84375 0.203125 Z M 4.84375 0.203125 "/></g></g></g><g fill="#6e7172" fill-opacity="1"><g transform="translate(210.95909, 266.175824)"><g><path d="M 5.109375 0 C 4.191406 0 3.472656 -0.257812 2.953125 -0.78125 C 2.441406 -1.3125 2.1875 -2.054688 2.1875 -3.015625 L 2.1875 -7.140625 L 0.4375 -7.140625 L 0.4375 -8.375 L 1.28125 -8.375 C 1.664062 -8.375 1.929688 -8.4375 2.078125 -8.5625 C 2.234375 -8.695312 2.332031 -8.953125 2.375 -9.328125 L 2.5 -10.453125 L 3.546875 -10.453125 L 3.546875 -8.375 L 6.265625 -8.375 L 6.265625 -7.140625 L 3.546875 -7.140625 L 3.546875 -3.078125 C 3.546875 -1.898438 4.09375 -1.3125 5.1875 -1.3125 L 6.375 -1.3125 L 6.375 0 Z M 5.109375 0 "/></g></g></g><g fill="#6e7172" fill-opacity="1"><g transform="translate(218.119613, 266.175824)"><g><path d="M 5.125 0.203125 C 4.289062 0.203125 3.550781 0.0195312 2.90625 -0.34375 C 2.257812 -0.71875 1.753906 -1.238281 1.390625 -1.90625 C 1.023438 -2.570312 0.84375 -3.335938 0.84375 -4.203125 C 0.84375 -5.054688 1.023438 -5.8125 1.390625 -6.46875 C 1.753906 -7.132812 2.257812 -7.65625 2.90625 -8.03125 C 3.5625 -8.40625 4.3125 -8.59375 5.15625 -8.59375 C 6.039062 -8.59375 6.8125 -8.378906 7.46875 -7.953125 C 8.125 -7.535156 8.625 -6.957031 8.96875 -6.21875 C 9.320312 -5.476562 9.484375 -4.617188 9.453125 -3.640625 L 2.21875 -3.640625 C 2.320312 -2.859375 2.632812 -2.234375 3.15625 -1.765625 C 3.6875 -1.296875 4.351562 -1.0625 5.15625 -1.0625 C 5.695312 -1.0625 6.191406 -1.179688 6.640625 -1.421875 C 7.097656 -1.660156 7.457031 -2 7.71875 -2.4375 L 9.25 -2.4375 C 8.914062 -1.613281 8.378906 -0.96875 7.640625 -0.5 C 6.910156 -0.03125 6.070312 0.203125 5.125 0.203125 Z M 2.234375 -4.84375 L 8.109375 -4.84375 C 7.960938 -5.601562 7.625 -6.203125 7.09375 -6.640625 C 6.5625 -7.085938 5.914062 -7.3125 5.15625 -7.3125 C 4.375 -7.3125 3.71875 -7.082031 3.1875 -6.625 C 2.664062 -6.175781 2.347656 -5.582031 2.234375 -4.84375 Z M 2.234375 -4.84375 "/></g></g></g><g fill="#6e7172" fill-opacity="1"><g transform="translate(228.376577, 266.175824)"><g/></g></g><g fill="#6e7172" fill-opacity="1"><g transform="translate(232.376153, 266.175824)"><g><path d="M 5.15625 0.203125 C 4.3125 0.203125 3.566406 0.015625 2.921875 -0.359375 C 2.273438 -0.734375 1.765625 -1.253906 1.390625 -1.921875 C 1.023438 -2.585938 0.84375 -3.347656 0.84375 -4.203125 C 0.84375 -5.046875 1.023438 -5.796875 1.390625 -6.453125 C 1.765625 -7.117188 2.273438 -7.640625 2.921875 -8.015625 C 3.566406 -8.398438 4.3125 -8.59375 5.15625 -8.59375 C 5.851562 -8.59375 6.488281 -8.457031 7.0625 -8.1875 C 7.644531 -7.925781 8.132812 -7.5625 8.53125 -7.09375 C 8.9375 -6.625 9.207031 -6.070312 9.34375 -5.4375 L 7.96875 -5.4375 C 7.726562 -6.019531 7.351562 -6.472656 6.84375 -6.796875 C 6.34375 -7.128906 5.78125 -7.296875 5.15625 -7.296875 C 4.582031 -7.296875 4.070312 -7.160156 3.625 -6.890625 C 3.175781 -6.628906 2.820312 -6.265625 2.5625 -5.796875 C 2.3125 -5.328125 2.1875 -4.796875 2.1875 -4.203125 C 2.1875 -3.597656 2.3125 -3.0625 2.5625 -2.59375 C 2.820312 -2.125 3.175781 -1.753906 3.625 -1.484375 C 4.070312 -1.222656 4.582031 -1.09375 5.15625 -1.09375 C 5.832031 -1.09375 6.425781 -1.269531 6.9375 -1.625 C 7.445312 -1.988281 7.800781 -2.472656 8 -3.078125 L 9.4375 -3.078125 C 9.15625 -2.066406 8.632812 -1.265625 7.875 -0.671875 C 7.113281 -0.0859375 6.207031 0.203125 5.15625 0.203125 Z M 5.15625 0.203125 "/></g></g></g><g fill="#6e7172" fill-opacity="1"><g transform="translate(242.600857, 266.175824)"><g><path d="M 5.28125 0.203125 C 4.40625 0.203125 3.632812 0.015625 2.96875 -0.359375 C 2.300781 -0.734375 1.78125 -1.253906 1.40625 -1.921875 C 1.03125 -2.585938 0.84375 -3.347656 0.84375 -4.203125 C 0.84375 -5.054688 1.03125 -5.8125 1.40625 -6.46875 C 1.78125 -7.125 2.300781 -7.640625 2.96875 -8.015625 C 3.632812 -8.398438 4.40625 -8.59375 5.28125 -8.59375 C 6.144531 -8.59375 6.910156 -8.398438 7.578125 -8.015625 C 8.253906 -7.640625 8.78125 -7.125 9.15625 -6.46875 C 9.53125 -5.8125 9.71875 -5.054688 9.71875 -4.203125 C 9.71875 -3.347656 9.53125 -2.585938 9.15625 -1.921875 C 8.78125 -1.253906 8.253906 -0.734375 7.578125 -0.359375 C 6.910156 0.015625 6.144531 0.203125 5.28125 0.203125 Z M 2.1875 -4.203125 C 2.1875 -3.585938 2.316406 -3.046875 2.578125 -2.578125 C 2.847656 -2.109375 3.210938 -1.742188 3.671875 -1.484375 C 4.140625 -1.222656 4.675781 -1.09375 5.28125 -1.09375 C 5.882812 -1.09375 6.414062 -1.222656 6.875 -1.484375 C 7.332031 -1.742188 7.691406 -2.109375 7.953125 -2.578125 C 8.222656 -3.046875 8.359375 -3.585938 8.359375 -4.203125 C 8.359375 -4.804688 8.222656 -5.335938 7.953125 -5.796875 C 7.691406 -6.265625 7.332031 -6.628906 6.875 -6.890625 C 6.414062 -7.160156 5.882812 -7.296875 5.28125 -7.296875 C 4.675781 -7.296875 4.140625 -7.160156 3.671875 -6.890625 C 3.210938 -6.628906 2.847656 -6.265625 2.578125 -5.796875 C 2.316406 -5.335938 2.1875 -4.804688 2.1875 -4.203125 Z M 2.1875 -4.203125 "/></g></g></g><g fill="#6e7172" fill-opacity="1"><g transform="translate(253.148103, 266.175824)"><g><path d="M 1.5 0 L 1.5 -8.375 L 2.609375 -8.375 L 2.765625 -7.15625 C 3.128906 -7.65625 3.570312 -8.019531 4.09375 -8.25 C 4.613281 -8.476562 5.15625 -8.59375 5.71875 -8.59375 C 6.832031 -8.59375 7.703125 -8.234375 8.328125 -7.515625 C 8.953125 -6.804688 9.265625 -5.859375 9.265625 -4.671875 L 9.265625 0 L 7.90625 0 L 7.90625 -4.53125 C 7.90625 -5.382812 7.691406 -6.054688 7.265625 -6.546875 C 6.847656 -7.046875 6.269531 -7.296875 5.53125 -7.296875 C 5.019531 -7.296875 4.5625 -7.164062 4.15625 -6.90625 C 3.75 -6.65625 3.429688 -6.300781 3.203125 -5.84375 C 2.972656 -5.382812 2.859375 -4.847656 2.859375 -4.234375 L 2.859375 0 Z M 1.5 0 "/></g></g></g><g fill="#6e7172" fill-opacity="1"><g transform="translate(263.743739, 266.175824)"><g><path d="M 2.3125 -9.234375 C 2.3125 -10.191406 2.5625 -10.914062 3.0625 -11.40625 C 3.5625 -11.90625 4.285156 -12.15625 5.234375 -12.15625 L 6.671875 -12.15625 L 6.671875 -10.875 L 5.359375 -10.875 C 4.765625 -10.875 4.332031 -10.738281 4.0625 -10.46875 C 3.789062 -10.195312 3.65625 -9.757812 3.65625 -9.15625 L 3.65625 -8.375 L 6.578125 -8.375 L 6.578125 -7.140625 L 3.65625 -7.140625 L 3.65625 0 L 2.3125 0 L 2.3125 -7.140625 L 0.484375 -7.140625 L 0.484375 -8.375 L 2.3125 -8.375 Z M 2.3125 -9.234375 "/></g></g></g><g fill="#6e7172" fill-opacity="1"><g transform="translate(270.565589, 266.175824)"><g><path d="M 1.5 0 L 1.5 -8.375 L 2.859375 -8.375 L 2.859375 0 Z M 1.078125 -10.8125 C 1.078125 -11.125 1.175781 -11.378906 1.375 -11.578125 C 1.570312 -11.773438 1.835938 -11.875 2.171875 -11.875 C 2.503906 -11.875 2.769531 -11.773438 2.96875 -11.578125 C 3.164062 -11.378906 3.265625 -11.125 3.265625 -10.8125 C 3.265625 -10.507812 3.164062 -10.257812 2.96875 -10.0625 C 2.769531 -9.863281 2.503906 -9.765625 2.171875 -9.765625 C 1.835938 -9.765625 1.570312 -9.863281 1.375 -10.0625 C 1.175781 -10.257812 1.078125 -10.507812 1.078125 -10.8125 Z M 1.078125 -10.8125 "/></g></g></g><g fill="#6e7172" fill-opacity="1"><g transform="translate(274.919954, 266.175824)"><g><path d="M 4.25 0.125 C 3.238281 0.125 2.445312 -0.101562 1.875 -0.5625 C 1.300781 -1.019531 1.015625 -1.640625 1.015625 -2.421875 C 1.015625 -3.179688 1.273438 -3.785156 1.796875 -4.234375 C 2.328125 -4.691406 3.03125 -4.921875 3.90625 -4.921875 L 7.328125 -4.921875 L 7.328125 -5.234375 C 7.328125 -5.890625 7.117188 -6.398438 6.703125 -6.765625 C 6.296875 -7.140625 5.738281 -7.328125 5.03125 -7.328125 C 4.5 -7.328125 4.03125 -7.203125 3.625 -6.953125 C 3.226562 -6.710938 2.960938 -6.390625 2.828125 -5.984375 L 1.453125 -5.984375 C 1.640625 -6.796875 2.050781 -7.429688 2.6875 -7.890625 C 3.320312 -8.359375 4.097656 -8.59375 5.015625 -8.59375 C 5.753906 -8.59375 6.394531 -8.453125 6.9375 -8.171875 C 7.488281 -7.898438 7.914062 -7.519531 8.21875 -7.03125 C 8.53125 -6.539062 8.6875 -5.972656 8.6875 -5.328125 L 8.6875 0 L 7.5625 0 L 7.421875 -1.15625 C 6.660156 -0.300781 5.601562 0.125 4.25 0.125 Z M 2.375 -2.4375 C 2.375 -2.03125 2.546875 -1.703125 2.890625 -1.453125 C 3.234375 -1.203125 3.703125 -1.078125 4.296875 -1.078125 C 4.878906 -1.078125 5.394531 -1.191406 5.84375 -1.421875 C 6.289062 -1.648438 6.648438 -1.960938 6.921875 -2.359375 C 7.191406 -2.753906 7.332031 -3.210938 7.34375 -3.734375 L 3.953125 -3.734375 C 3.492188 -3.734375 3.113281 -3.613281 2.8125 -3.375 C 2.519531 -3.144531 2.375 -2.832031 2.375 -2.4375 Z M 2.375 -2.4375 "/></g></g></g><g fill="#6e7172" fill-opacity="1"><g transform="translate(284.918881, 266.175824)"><g><path d="M 1.5 0 L 1.5 -8.375 L 2.609375 -8.375 L 2.765625 -7.15625 C 3.128906 -7.65625 3.570312 -8.019531 4.09375 -8.25 C 4.613281 -8.476562 5.15625 -8.59375 5.71875 -8.59375 C 6.832031 -8.59375 7.703125 -8.234375 8.328125 -7.515625 C 8.953125 -6.804688 9.265625 -5.859375 9.265625 -4.671875 L 9.265625 0 L 7.90625 0 L 7.90625 -4.53125 C 7.90625 -5.382812 7.691406 -6.054688 7.265625 -6.546875 C 6.847656 -7.046875 6.269531 -7.296875 5.53125 -7.296875 C 5.019531 -7.296875 4.5625 -7.164062 4.15625 -6.90625 C 3.75 -6.65625 3.429688 -6.300781 3.203125 -5.84375 C 2.972656 -5.382812 2.859375 -4.847656 2.859375 -4.234375 L 2.859375 0 Z M 1.5 0 "/></g></g></g><g fill="#6e7172" fill-opacity="1"><g transform="translate(295.514503, 266.175824)"><g><path d="M 5.15625 0.203125 C 4.3125 0.203125 3.566406 0.015625 2.921875 -0.359375 C 2.273438 -0.734375 1.765625 -1.253906 1.390625 -1.921875 C 1.023438 -2.585938 0.84375 -3.347656 0.84375 -4.203125 C 0.84375 -5.046875 1.023438 -5.796875 1.390625 -6.453125 C 1.765625 -7.117188 2.273438 -7.640625 2.921875 -8.015625 C 3.566406 -8.398438 4.3125 -8.59375 5.15625 -8.59375 C 5.851562 -8.59375 6.488281 -8.457031 7.0625 -8.1875 C 7.644531 -7.925781 8.132812 -7.5625 8.53125 -7.09375 C 8.9375 -6.625 9.207031 -6.070312 9.34375 -5.4375 L 7.96875 -5.4375 C 7.726562 -6.019531 7.351562 -6.472656 6.84375 -6.796875 C 6.34375 -7.128906 5.78125 -7.296875 5.15625 -7.296875 C 4.582031 -7.296875 4.070312 -7.160156 3.625 -6.890625 C 3.175781 -6.628906 2.820312 -6.265625 2.5625 -5.796875 C 2.3125 -5.328125 2.1875 -4.796875 2.1875 -4.203125 C 2.1875 -3.597656 2.3125 -3.0625 2.5625 -2.59375 C 2.820312 -2.125 3.175781 -1.753906 3.625 -1.484375 C 4.070312 -1.222656 4.582031 -1.09375 5.15625 -1.09375 C 5.832031 -1.09375 6.425781 -1.269531 6.9375 -1.625 C 7.445312 -1.988281 7.800781 -2.472656 8 -3.078125 L 9.4375 -3.078125 C 9.15625 -2.066406 8.632812 -1.265625 7.875 -0.671875 C 7.113281 -0.0859375 6.207031 0.203125 5.15625 0.203125 Z M 5.15625 0.203125 "/></g></g></g><g fill="#6e7172" fill-opacity="1"><g transform="translate(305.739192, 266.175824)"><g><path d="M 5.125 0.203125 C 4.289062 0.203125 3.550781 0.0195312 2.90625 -0.34375 C 2.257812 -0.71875 1.753906 -1.238281 1.390625 -1.90625 C 1.023438 -2.570312 0.84375 -3.335938 0.84375 -4.203125 C 0.84375 -5.054688 1.023438 -5.8125 1.390625 -6.46875 C 1.753906 -7.132812 2.257812 -7.65625 2.90625 -8.03125 C 3.5625 -8.40625 4.3125 -8.59375 5.15625 -8.59375 C 6.039062 -8.59375 6.8125 -8.378906 7.46875 -7.953125 C 8.125 -7.535156 8.625 -6.957031 8.96875 -6.21875 C 9.320312 -5.476562 9.484375 -4.617188 9.453125 -3.640625 L 2.21875 -3.640625 C 2.320312 -2.859375 2.632812 -2.234375 3.15625 -1.765625 C 3.6875 -1.296875 4.351562 -1.0625 5.15625 -1.0625 C 5.695312 -1.0625 6.191406 -1.179688 6.640625 -1.421875 C 7.097656 -1.660156 7.457031 -2 7.71875 -2.4375 L 9.25 -2.4375 C 8.914062 -1.613281 8.378906 -0.96875 7.640625 -0.5 C 6.910156 -0.03125 6.070312 0.203125 5.125 0.203125 Z M 2.234375 -4.84375 L 8.109375 -4.84375 C 7.960938 -5.601562 7.625 -6.203125 7.09375 -6.640625 C 6.5625 -7.085938 5.914062 -7.3125 5.15625 -7.3125 C 4.375 -7.3125 3.71875 -7.082031 3.1875 -6.625 C 2.664062 -6.175781 2.347656 -5.582031 2.234375 -4.84375 Z M 2.234375 -4.84375 "/></g></g></g></svg>